<svg width="159" height="119" viewBox="0 0 159 119" fill="none" xmlns="http://www.w3.org/2000/svg">
<path d="M120.992 94.6557C122.752 101.223 114.583 106.227 114.583 106.227C114.583 106.227 105.007 105.978 103.248 99.4104C101.488 92.8433 110.556 91.1957 112.12 97.0331C110.556 91.1957 119.233 88.0886 120.992 94.6557Z" fill="white"/>
<path d="M133.342 108.246C136.122 112.824 131.048 118.411 131.048 118.411C131.048 118.411 123.751 120.335 120.971 115.757C118.191 111.179 124.685 107.932 127.156 112.001C124.685 107.932 130.562 103.667 133.342 108.246Z" fill="white"/>
<path d="M99.3401 89.922C94.5109 90.9674 89.6908 89.7194 85.9613 86.8949C83.3333 91.2687 78.8123 94.3542 73.4486 94.8474C65.4032 95.5871 58.1583 90.2462 56.002 82.5055C53.368 86.8418 48.8669 89.8967 43.5322 90.3872C34.4425 91.223 26.3749 84.2973 25.5125 74.9183C25.4853 74.6222 25.4656 74.3273 25.4532 74.0336C23.3488 75.3736 20.9162 76.2423 18.28 76.4846C9.19034 77.3204 1.12269 70.3947 0.260341 61.0157C-0.602008 51.6367 6.0675 43.356 15.1571 42.5203C15.3508 42.5025 15.544 42.4882 15.7366 42.4774C15.2282 41.085 14.8888 39.6016 14.7462 38.0512C13.8839 28.6722 20.5534 20.3916 29.643 19.5558C32.4759 19.2953 35.2096 19.7888 37.6568 20.8754C38.7996 13.3695 44.7512 7.35048 52.4298 6.64447C55.6909 6.34463 58.8205 7.04382 61.533 8.49691C64.2126 4.52793 68.5139 1.76796 73.5616 1.30385C79.2249 0.783145 84.4915 3.27537 87.8658 7.49669C90.1057 4.43447 93.3839 2.15537 97.3328 1.26607C105.017 -0.464352 112.728 3.63315 116.061 10.6911C116.407 10.5882 116.759 10.4963 117.117 10.4157C126.018 8.41113 134.957 14.2277 137.082 23.4074C138.19 28.1923 137.227 32.9465 134.791 36.6859C135.814 36.2212 136.9 35.8582 138.041 35.6112C146.959 33.6807 155.847 39.5717 157.891 48.769C159.936 57.9664 154.364 66.9873 145.446 68.9178C142.666 69.5195 139.89 69.3614 137.322 68.5803C137.139 76.1629 131.993 82.8538 124.459 84.4846C119.387 85.5827 114.324 84.1502 110.525 81.0181C108.403 85.4319 104.413 88.824 99.3401 89.922Z" fill="white"/>
</svg>
