<svg width="67" height="67" viewBox="0 0 67 67" fill="none" xmlns="http://www.w3.org/2000/svg">
<g id="Group 9">
<circle id="Ellipse 15" cx="33.5" cy="33.5" r="33.5" fill="url(#paint0_linear_908_268)"/>
<path id="Subtract" fill-rule="evenodd" clip-rule="evenodd" d="M40.2097 10.1747C39.2585 10.5234 38.3383 11.3342 37.7049 12.8165C36.4443 15.7667 37.4872 18.6988 38.9352 20.9684C39.6543 22.0955 40.4581 23.0334 41.0838 23.6904C41.396 24.0184 41.6625 24.2749 41.8499 24.4484C41.9197 24.5131 41.9784 24.5662 42.0244 24.6071C42.0857 24.6121 42.1647 24.6178 42.2597 24.6235C42.5146 24.6389 42.8842 24.6542 43.337 24.6532C44.2443 24.6512 45.4776 24.5838 46.7892 24.3243C49.4302 23.8019 52.2699 22.5289 53.5305 19.5787C54.1639 18.0964 54.1137 16.8709 53.7082 15.9425C53.2996 15.0069 52.5056 14.3163 51.5496 13.9546C49.6372 13.2311 47.1655 13.8478 46.0775 16.394L45.6177 16.1976L45.1579 16.0011C46.2459 13.4549 44.9831 11.2424 43.1383 10.3606C42.2161 9.91971 41.1683 9.82334 40.2097 10.1747ZM34 14.5448L36.1394 15.4686C36.1112 17.744 37.0353 19.8497 38.0921 21.5062C38.8555 22.7027 39.7038 23.6914 40.3596 24.3801C40.688 24.725 40.9696 24.9961 41.1702 25.182C41.2705 25.2749 41.3507 25.3466 41.4064 25.3957C41.4343 25.4202 41.4561 25.439 41.4713 25.4521L41.489 25.4672L41.494 25.4714L41.4955 25.4727L41.496 25.4731C41.4962 25.4733 41.4963 25.4734 41.8178 25.0905L41.4963 25.4734L41.6125 25.571L41.7634 25.5875L41.8178 25.0905C41.7634 25.5875 41.7636 25.5875 41.7638 25.5876L41.7645 25.5876L41.7665 25.5878L41.773 25.5885L41.7961 25.5909C41.806 25.5918 41.8181 25.593 41.8323 25.5943C41.8467 25.5956 41.8631 25.5971 41.8817 25.5987C41.9557 25.6051 42.0629 25.6135 42.1994 25.6217C42.4724 25.6382 42.8629 25.6543 43.3392 25.6532C44.2902 25.6511 45.591 25.5807 46.9833 25.3053C48.8898 24.9282 51.0242 24.1535 52.6427 22.595L55.0419 23.6311L36.9606 38.2302L34.2615 36.574L34 36.4135L33.7385 36.574L31.0394 38.2302L12.9581 23.6311L34 14.5448ZM12.5 24.5465L30.135 38.7852L12.5 49.6067V24.5465ZM54.2292 50.0001L36.7385 39.2672L34 37.5868L31.2615 39.2672L13.7708 50.0001H54.2292ZM55.5 49.6067L37.865 38.7852L55.5 24.5465V49.6067ZM33.5043 27.6194C33.8242 26.8707 34.2763 26.4864 34.7191 26.3241C35.1691 26.1591 35.6682 26.2018 36.1157 26.4156C37.0109 26.8436 37.6202 27.9093 37.0895 29.1514L38.0091 29.5443C38.5398 28.3022 39.7311 28.0059 40.6592 28.3571C41.123 28.5325 41.4988 28.8637 41.6907 29.303C41.8794 29.7352 41.9142 30.3275 41.5943 31.0762C40.9606 32.5592 39.5267 33.2184 38.1348 33.4938C37.4477 33.6297 36.7997 33.6653 36.3217 33.6663C36.0834 33.6669 35.8895 33.6588 35.7565 33.6508L35.7119 33.6479L35.679 33.6177C35.5813 33.5271 35.4414 33.3925 35.2771 33.22C34.9474 32.8738 34.5252 32.3809 34.1485 31.7905C33.3854 30.5943 32.8706 29.1024 33.5043 27.6194ZM36.547 25.5134C37.3908 25.9169 38.0689 26.7213 38.2449 27.7199C39.0882 27.1569 40.1382 27.0908 41.013 27.4218C41.6957 27.68 42.294 28.186 42.6071 28.9028C42.9232 29.6266 42.9242 30.509 42.5139 31.4692C41.6872 33.4038 39.8465 34.1746 38.3289 34.4748C37.5611 34.6266 36.8457 34.6652 36.3239 34.6663C36.0622 34.6669 35.8472 34.6581 35.6962 34.649C35.6206 34.6444 35.5609 34.6397 35.5193 34.6362C35.4984 34.6343 35.4821 34.6328 35.4705 34.6317L35.4568 34.6303L35.4526 34.6298L35.4512 34.6297L35.4507 34.6296C35.4505 34.6296 35.4503 34.6296 35.5048 34.1326C35.1833 34.5155 35.1832 34.5154 35.183 34.5152L35.1826 34.5149L35.1815 34.514L35.1784 34.5113L35.1678 34.5023C35.159 34.4948 35.1466 34.484 35.1309 34.4702C35.0995 34.4426 35.0549 34.4027 34.9994 34.3512C34.8884 34.2484 34.7334 34.0991 34.5529 33.9096C34.1931 33.5318 33.7264 32.9881 33.3055 32.3283C32.4734 31.0241 31.758 29.1612 32.5847 27.2265C32.995 26.2663 33.6333 25.6571 34.3749 25.3852C35.1092 25.116 35.8884 25.1986 36.547 25.5134ZM35.5048 34.1326L35.4503 34.6296L35.2995 34.6131L35.1833 34.5155L35.5048 34.1326Z" fill="white"/>
</g>
<defs>
<linearGradient id="paint0_linear_908_268" x1="-0.905123" y1="33.4953" x2="65.4601" y2="33.4953" gradientUnits="userSpaceOnUse">
<stop stop-color="#FF6B84"/>
<stop offset="0.975" stop-color="#FBACB3"/>
<stop offset="1" stop-color="#FBAEB4"/>
</linearGradient>
</defs>
</svg>
