<svg width="67" height="67" viewBox="0 0 67 67" fill="none" xmlns="http://www.w3.org/2000/svg">
<circle cx="33.5" cy="33.5" r="33.5" fill="url(#paint0_linear_908_269)"/>
<g clip-path="url(#clip0_908_269)">
<path d="M39.2856 16.5128L39.4597 16.5L39.6651 16.5073L39.8722 16.5385L40.0794 16.5935L51.0794 20.2602C51.4101 20.3704 51.7024 20.5726 51.9223 20.8431C52.1421 21.1136 52.2803 21.4411 52.3206 21.7873L52.3334 22V31.1667C52.3334 31.6157 52.1685 32.0491 51.8701 32.3847C51.5717 32.7202 51.1605 32.9346 50.7146 32.9872L50.5001 33H46.8334V45.8333C46.8337 46.7584 46.4843 47.6494 45.8553 48.3277C45.2263 49.006 44.3642 49.4215 43.4417 49.4908L43.1667 49.5H24.8334C23.9084 49.5003 23.0174 49.1509 22.3391 48.5219C21.6608 47.8929 21.2453 47.0308 21.1759 46.1083L21.1667 45.8333V33H17.5001C17.051 32.9999 16.6176 32.8351 16.2821 32.5367C15.9465 32.2383 15.7321 31.8271 15.6796 31.3812L15.6667 31.1667V22C15.6666 21.6514 15.7659 21.31 15.9529 21.0158C16.14 20.7216 16.407 20.4868 16.7227 20.339L16.9207 20.2602L27.9207 16.5935C28.1964 16.5017 28.4898 16.4767 28.777 16.5206C29.0642 16.5645 29.3368 16.676 29.5724 16.8459C29.808 17.0158 29.9999 17.2393 30.1322 17.4979C30.2645 17.7565 30.3335 18.0428 30.3334 18.3333C30.3292 19.2848 30.6949 20.2007 31.3534 20.8874C32.012 21.5742 32.9117 21.9781 33.8625 22.0138C34.8133 22.0495 35.7407 21.7142 36.4489 21.0788C37.1571 20.4433 37.5905 19.5574 37.6576 18.6083L37.6741 18.1683L37.7052 17.9612L37.7731 17.7155L37.8537 17.5267L37.9454 17.358L38.0701 17.1875L38.1966 17.0408C38.2992 16.9418 38.4037 16.8575 38.5174 16.7842L38.6934 16.687L38.8822 16.6063L39.0802 16.5477L39.2856 16.5128Z" fill="white"/>
</g>
<defs>
<linearGradient id="paint0_linear_908_269" x1="-0.905123" y1="33.4953" x2="65.4601" y2="33.4953" gradientUnits="userSpaceOnUse">
<stop stop-color="#FF6B84"/>
<stop offset="0.975" stop-color="#FBACB3"/>
<stop offset="1" stop-color="#FBAEB4"/>
</linearGradient>
<clipPath id="clip0_908_269">
<rect width="44" height="44" fill="white" transform="translate(12 11)"/>
</clipPath>
</defs>
</svg>
